<?xml version="1.0" encoding="UTF-8" standalone="no"?>
<!DOCTYPE svg PUBLIC "-//W3C//DTD SVG 1.1//EN"
 "http://www.w3.org/Graphics/SVG/1.1/DTD/svg11.dtd">
<!-- Generated by graphviz version 12.2.1 (0)
 -->
<!-- Title: inverter Pages: 1 -->
<svg width="290pt" height="127pt"
 viewBox="0.00 0.00 290.33 127.00" xmlns="http://www.w3.org/2000/svg" xmlns:xlink="http://www.w3.org/1999/xlink">
<g id="graph0" class="graph" transform="scale(1 1) rotate(0) translate(4 123)">
<title>inverter</title>
<polygon fill="white" stroke="none" points="-4,4 -4,-123 286.33,-123 286.33,4 -4,4"/>
<text text-anchor="middle" x="141.16" y="-7.95" font-family="Times,serif" font-size="14.00">inverter</text>
<!-- n1 -->
<g id="node1" class="node">
<title>n1</title>
<polygon fill="none" stroke="black" points="55.66,-39.54 55.66,-54.46 39.85,-65 17.48,-65 1.66,-54.46 1.66,-39.54 17.48,-29 39.85,-29 55.66,-39.54"/>
<text text-anchor="middle" x="28.66" y="-42.33" font-family="Times,serif" font-size="14.00">a</text>
</g>
<!-- c6 -->
<g id="node4" class="node">
<title>c6</title>
<polygon fill="none" stroke="black" points="93.33,-25.75 93.33,-68.25 192.33,-68.25 192.33,-25.75 93.33,-25.75"/>
<text text-anchor="middle" x="106.2" y="-42.45" font-family="Times,serif" font-size="14.00">A</text>
<polyline fill="none" stroke="black" points="119.08,-25.75 119.08,-68.25"/>
<text text-anchor="middle" x="143.2" y="-50.95" font-family="Times,serif" font-size="14.00">$1</text>
<text text-anchor="middle" x="143.2" y="-33.7" font-family="Times,serif" font-size="14.00">$not</text>
<polyline fill="none" stroke="black" points="167.33,-25.75 167.33,-68.25"/>
<text text-anchor="middle" x="179.83" y="-42.45" font-family="Times,serif" font-size="14.00">Y</text>
</g>
<!-- n1&#45;&gt;c6 -->
<g id="edge1" class="edge">
<title>n1:e&#45;&gt;c6:w</title>
<path fill="none" stroke="#e7298a" stroke-width="3" d="M56.92,-47C68.55,-47 73.91,-47.06 82.01,-47.1"/>
<polygon fill="#e7298a" stroke="#e7298a" stroke-width="3" points="78.78,-50.59 88.78,-47.12 78.79,-43.59 78.78,-50.59"/>
</g>
<!-- n2 -->
<g id="node2" class="node">
<title>n2</title>
<polygon fill="none" stroke="black" points="57.33,-93.54 57.33,-108.46 40.54,-119 16.79,-119 0,-108.46 0,-93.54 16.79,-83 40.54,-83 57.33,-93.54"/>
<text text-anchor="middle" x="28.66" y="-96.33" font-family="Times,serif" font-size="14.00">err</text>
</g>
<!-- n3 -->
<g id="node3" class="node">
<title>n3</title>
<polygon fill="none" stroke="black" points="282.33,-39.54 282.33,-54.46 266.51,-65 244.14,-65 228.33,-54.46 228.33,-39.54 244.14,-29 266.51,-29 282.33,-39.54"/>
<text text-anchor="middle" x="255.33" y="-42.33" font-family="Times,serif" font-size="14.00">o</text>
</g>
<!-- c6&#45;&gt;n3 -->
<g id="edge2" class="edge">
<title>c6:e&#45;&gt;n3:w</title>
<path fill="none" stroke="#7570b3" stroke-width="3" d="M192.33,-47.12C203.7,-47.12 209.01,-47.06 216.88,-47.03"/>
<polygon fill="#7570b3" stroke="#7570b3" stroke-width="3" points="213.79,-50.53 223.78,-47.01 213.78,-43.53 213.79,-50.53"/>
</g>
</g>
</svg>
